<mxfile host="app.diagrams.net" modified="2020-12-16T02:53:56.201Z" agent="5.0 (Macintosh; Intel Mac OS X 10_15_7) AppleWebKit/537.36 (KHTML, like Gecko) Chrome/87.0.4280.88 Safari/537.36" etag="5hVjHA-XWE_pNMluJHLv" version="13.10.8" type="github">
  <diagram id="C5RBs43oDa-KdzZeNtuy" name="Page-1">
    <mxGraphModel dx="541" dy="314" grid="1" gridSize="10" guides="1" tooltips="1" connect="1" arrows="1" fold="1" page="1" pageScale="1" pageWidth="827" pageHeight="1169" math="0" shadow="0">
      <root>
        <mxCell id="WIyWlLk6GJQsqaUBKTNV-0" />
        <mxCell id="WIyWlLk6GJQsqaUBKTNV-1" parent="WIyWlLk6GJQsqaUBKTNV-0" />
        <mxCell id="7mk8K7BxGzbzZLSSsg7X-5" style="edgeStyle=orthogonalEdgeStyle;rounded=0;orthogonalLoop=1;jettySize=auto;html=1;" edge="1" parent="WIyWlLk6GJQsqaUBKTNV-1" source="WIyWlLk6GJQsqaUBKTNV-3" target="7mk8K7BxGzbzZLSSsg7X-4">
          <mxGeometry relative="1" as="geometry" />
        </mxCell>
        <mxCell id="WIyWlLk6GJQsqaUBKTNV-3" value="开始" style="rounded=1;whiteSpace=wrap;html=1;fontSize=12;glass=0;strokeWidth=1;shadow=0;" parent="WIyWlLk6GJQsqaUBKTNV-1" vertex="1">
          <mxGeometry x="15" y="160" width="120" height="40" as="geometry" />
        </mxCell>
        <mxCell id="7mk8K7BxGzbzZLSSsg7X-0" value="&lt;span style=&quot;font-size: 36px&quot;&gt;调场&lt;/span&gt;" style="text;html=1;align=center;verticalAlign=middle;resizable=0;points=[];autosize=1;" vertex="1" parent="WIyWlLk6GJQsqaUBKTNV-1">
          <mxGeometry x="30" y="30" width="90" height="30" as="geometry" />
        </mxCell>
        <mxCell id="7mk8K7BxGzbzZLSSsg7X-1" value="&lt;span style=&quot;font-size: 36px&quot;&gt;调课&lt;/span&gt;" style="text;html=1;align=center;verticalAlign=middle;resizable=0;points=[];autosize=1;" vertex="1" parent="WIyWlLk6GJQsqaUBKTNV-1">
          <mxGeometry x="30" y="400" width="90" height="30" as="geometry" />
        </mxCell>
        <mxCell id="7mk8K7BxGzbzZLSSsg7X-8" style="edgeStyle=orthogonalEdgeStyle;rounded=0;orthogonalLoop=1;jettySize=auto;html=1;" edge="1" parent="WIyWlLk6GJQsqaUBKTNV-1" source="7mk8K7BxGzbzZLSSsg7X-4" target="7mk8K7BxGzbzZLSSsg7X-7">
          <mxGeometry relative="1" as="geometry" />
        </mxCell>
        <mxCell id="7mk8K7BxGzbzZLSSsg7X-11" value="no" style="edgeLabel;html=1;align=center;verticalAlign=middle;resizable=0;points=[];" vertex="1" connectable="0" parent="7mk8K7BxGzbzZLSSsg7X-8">
          <mxGeometry x="-0.575" y="-1" relative="1" as="geometry">
            <mxPoint as="offset" />
          </mxGeometry>
        </mxCell>
        <mxCell id="7mk8K7BxGzbzZLSSsg7X-10" style="edgeStyle=orthogonalEdgeStyle;rounded=0;orthogonalLoop=1;jettySize=auto;html=1;exitX=1;exitY=0.5;exitDx=0;exitDy=0;entryX=0;entryY=0.5;entryDx=0;entryDy=0;" edge="1" parent="WIyWlLk6GJQsqaUBKTNV-1" source="7mk8K7BxGzbzZLSSsg7X-4" target="7mk8K7BxGzbzZLSSsg7X-6">
          <mxGeometry relative="1" as="geometry" />
        </mxCell>
        <mxCell id="7mk8K7BxGzbzZLSSsg7X-12" value="yes" style="edgeLabel;html=1;align=center;verticalAlign=middle;resizable=0;points=[];" vertex="1" connectable="0" parent="7mk8K7BxGzbzZLSSsg7X-10">
          <mxGeometry x="-0.2286" y="3" relative="1" as="geometry">
            <mxPoint as="offset" />
          </mxGeometry>
        </mxCell>
        <mxCell id="7mk8K7BxGzbzZLSSsg7X-4" value="调场规则验证" style="rhombus;whiteSpace=wrap;html=1;" vertex="1" parent="WIyWlLk6GJQsqaUBKTNV-1">
          <mxGeometry x="200" y="140" width="80" height="80" as="geometry" />
        </mxCell>
        <mxCell id="7mk8K7BxGzbzZLSSsg7X-9" style="edgeStyle=orthogonalEdgeStyle;rounded=0;orthogonalLoop=1;jettySize=auto;html=1;exitX=0.5;exitY=1;exitDx=0;exitDy=0;" edge="1" parent="WIyWlLk6GJQsqaUBKTNV-1" source="7mk8K7BxGzbzZLSSsg7X-6" target="7mk8K7BxGzbzZLSSsg7X-7">
          <mxGeometry relative="1" as="geometry" />
        </mxCell>
        <mxCell id="7mk8K7BxGzbzZLSSsg7X-13" value="no" style="edgeLabel;html=1;align=center;verticalAlign=middle;resizable=0;points=[];" vertex="1" connectable="0" parent="7mk8K7BxGzbzZLSSsg7X-9">
          <mxGeometry x="-0.6533" y="2" relative="1" as="geometry">
            <mxPoint as="offset" />
          </mxGeometry>
        </mxCell>
        <mxCell id="7mk8K7BxGzbzZLSSsg7X-16" style="edgeStyle=orthogonalEdgeStyle;rounded=0;orthogonalLoop=1;jettySize=auto;html=1;exitX=0.5;exitY=1;exitDx=0;exitDy=0;" edge="1" parent="WIyWlLk6GJQsqaUBKTNV-1" source="7mk8K7BxGzbzZLSSsg7X-6" target="7mk8K7BxGzbzZLSSsg7X-15">
          <mxGeometry relative="1" as="geometry" />
        </mxCell>
        <mxCell id="7mk8K7BxGzbzZLSSsg7X-18" style="edgeStyle=orthogonalEdgeStyle;rounded=0;orthogonalLoop=1;jettySize=auto;html=1;exitX=1;exitY=0.5;exitDx=0;exitDy=0;" edge="1" parent="WIyWlLk6GJQsqaUBKTNV-1" source="7mk8K7BxGzbzZLSSsg7X-6" target="7mk8K7BxGzbzZLSSsg7X-19">
          <mxGeometry relative="1" as="geometry">
            <mxPoint x="580" y="180" as="targetPoint" />
          </mxGeometry>
        </mxCell>
        <mxCell id="7mk8K7BxGzbzZLSSsg7X-56" value="yes" style="edgeLabel;html=1;align=center;verticalAlign=middle;resizable=0;points=[];" vertex="1" connectable="0" parent="7mk8K7BxGzbzZLSSsg7X-18">
          <mxGeometry x="-0.1963" y="2" relative="1" as="geometry">
            <mxPoint as="offset" />
          </mxGeometry>
        </mxCell>
        <mxCell id="7mk8K7BxGzbzZLSSsg7X-6" value="推荐临调实体班级" style="rhombus;whiteSpace=wrap;html=1;" vertex="1" parent="WIyWlLk6GJQsqaUBKTNV-1">
          <mxGeometry x="350" y="140" width="80" height="80" as="geometry" />
        </mxCell>
        <mxCell id="7mk8K7BxGzbzZLSSsg7X-7" value="失败退出" style="rounded=1;whiteSpace=wrap;html=1;fontSize=12;glass=0;strokeWidth=1;shadow=0;" vertex="1" parent="WIyWlLk6GJQsqaUBKTNV-1">
          <mxGeometry x="260" y="300" width="120" height="40" as="geometry" />
        </mxCell>
        <mxCell id="7mk8K7BxGzbzZLSSsg7X-20" style="edgeStyle=orthogonalEdgeStyle;rounded=0;orthogonalLoop=1;jettySize=auto;html=1;exitX=1;exitY=0.5;exitDx=0;exitDy=0;" edge="1" parent="WIyWlLk6GJQsqaUBKTNV-1" source="7mk8K7BxGzbzZLSSsg7X-15" target="7mk8K7BxGzbzZLSSsg7X-19">
          <mxGeometry relative="1" as="geometry" />
        </mxCell>
        <mxCell id="7mk8K7BxGzbzZLSSsg7X-15" value="推虚拟班" style="rounded=0;whiteSpace=wrap;html=1;" vertex="1" parent="WIyWlLk6GJQsqaUBKTNV-1">
          <mxGeometry x="414" y="300" width="120" height="40" as="geometry" />
        </mxCell>
        <mxCell id="7mk8K7BxGzbzZLSSsg7X-22" style="edgeStyle=orthogonalEdgeStyle;rounded=0;orthogonalLoop=1;jettySize=auto;html=1;exitX=1;exitY=0.5;exitDx=0;exitDy=0;" edge="1" parent="WIyWlLk6GJQsqaUBKTNV-1" source="7mk8K7BxGzbzZLSSsg7X-19" target="7mk8K7BxGzbzZLSSsg7X-21">
          <mxGeometry relative="1" as="geometry" />
        </mxCell>
        <mxCell id="7mk8K7BxGzbzZLSSsg7X-19" value="修改用户场次数据，及更新缓存" style="rounded=0;whiteSpace=wrap;html=1;" vertex="1" parent="WIyWlLk6GJQsqaUBKTNV-1">
          <mxGeometry x="520" y="160" width="120" height="40" as="geometry" />
        </mxCell>
        <mxCell id="7mk8K7BxGzbzZLSSsg7X-61" style="edgeStyle=orthogonalEdgeStyle;rounded=0;orthogonalLoop=1;jettySize=auto;html=1;entryX=0;entryY=0.5;entryDx=0;entryDy=0;" edge="1" parent="WIyWlLk6GJQsqaUBKTNV-1" source="7mk8K7BxGzbzZLSSsg7X-21" target="7mk8K7BxGzbzZLSSsg7X-60">
          <mxGeometry relative="1" as="geometry" />
        </mxCell>
        <mxCell id="7mk8K7BxGzbzZLSSsg7X-21" value="修改用户课程数据，及更新缓存" style="rounded=0;whiteSpace=wrap;html=1;" vertex="1" parent="WIyWlLk6GJQsqaUBKTNV-1">
          <mxGeometry x="707" y="160" width="120" height="40" as="geometry" />
        </mxCell>
        <mxCell id="7mk8K7BxGzbzZLSSsg7X-27" style="edgeStyle=orthogonalEdgeStyle;rounded=0;orthogonalLoop=1;jettySize=auto;html=1;" edge="1" parent="WIyWlLk6GJQsqaUBKTNV-1" source="7mk8K7BxGzbzZLSSsg7X-23" target="7mk8K7BxGzbzZLSSsg7X-24">
          <mxGeometry relative="1" as="geometry" />
        </mxCell>
        <mxCell id="7mk8K7BxGzbzZLSSsg7X-23" value="推送调场MQ" style="rounded=0;whiteSpace=wrap;html=1;" vertex="1" parent="WIyWlLk6GJQsqaUBKTNV-1">
          <mxGeometry x="1140" y="160" width="120" height="40" as="geometry" />
        </mxCell>
        <mxCell id="7mk8K7BxGzbzZLSSsg7X-28" style="edgeStyle=orthogonalEdgeStyle;rounded=0;orthogonalLoop=1;jettySize=auto;html=1;entryX=0;entryY=0.5;entryDx=0;entryDy=0;" edge="1" parent="WIyWlLk6GJQsqaUBKTNV-1" source="7mk8K7BxGzbzZLSSsg7X-24" target="7mk8K7BxGzbzZLSSsg7X-29">
          <mxGeometry relative="1" as="geometry">
            <mxPoint x="1510.0000000000002" y="180" as="targetPoint" />
          </mxGeometry>
        </mxCell>
        <mxCell id="7mk8K7BxGzbzZLSSsg7X-24" value="发送SMS消息" style="rounded=0;whiteSpace=wrap;html=1;" vertex="1" parent="WIyWlLk6GJQsqaUBKTNV-1">
          <mxGeometry x="1330" y="160" width="120" height="40" as="geometry" />
        </mxCell>
        <mxCell id="7mk8K7BxGzbzZLSSsg7X-25" value="班级名额，及临调数据维护" style="text;html=1;align=center;verticalAlign=middle;resizable=0;points=[];autosize=1;" vertex="1" parent="WIyWlLk6GJQsqaUBKTNV-1">
          <mxGeometry x="510" y="110" width="160" height="20" as="geometry" />
        </mxCell>
        <mxCell id="7mk8K7BxGzbzZLSSsg7X-29" value="返回数据，成功结束" style="rounded=1;whiteSpace=wrap;html=1;" vertex="1" parent="WIyWlLk6GJQsqaUBKTNV-1">
          <mxGeometry x="1520" y="155" width="120" height="50" as="geometry" />
        </mxCell>
        <mxCell id="7mk8K7BxGzbzZLSSsg7X-31" style="edgeStyle=orthogonalEdgeStyle;rounded=0;orthogonalLoop=1;jettySize=auto;html=1;" edge="1" parent="WIyWlLk6GJQsqaUBKTNV-1" source="7mk8K7BxGzbzZLSSsg7X-32" target="7mk8K7BxGzbzZLSSsg7X-37">
          <mxGeometry relative="1" as="geometry" />
        </mxCell>
        <mxCell id="7mk8K7BxGzbzZLSSsg7X-32" value="开始" style="rounded=1;whiteSpace=wrap;html=1;fontSize=12;glass=0;strokeWidth=1;shadow=0;" vertex="1" parent="WIyWlLk6GJQsqaUBKTNV-1">
          <mxGeometry x="30" y="620" width="120" height="40" as="geometry" />
        </mxCell>
        <mxCell id="7mk8K7BxGzbzZLSSsg7X-33" style="edgeStyle=orthogonalEdgeStyle;rounded=0;orthogonalLoop=1;jettySize=auto;html=1;" edge="1" parent="WIyWlLk6GJQsqaUBKTNV-1" source="7mk8K7BxGzbzZLSSsg7X-37" target="7mk8K7BxGzbzZLSSsg7X-43">
          <mxGeometry relative="1" as="geometry" />
        </mxCell>
        <mxCell id="7mk8K7BxGzbzZLSSsg7X-34" value="no" style="edgeLabel;html=1;align=center;verticalAlign=middle;resizable=0;points=[];" vertex="1" connectable="0" parent="7mk8K7BxGzbzZLSSsg7X-33">
          <mxGeometry x="-0.575" y="-1" relative="1" as="geometry">
            <mxPoint as="offset" />
          </mxGeometry>
        </mxCell>
        <mxCell id="7mk8K7BxGzbzZLSSsg7X-35" style="edgeStyle=orthogonalEdgeStyle;rounded=0;orthogonalLoop=1;jettySize=auto;html=1;exitX=1;exitY=0.5;exitDx=0;exitDy=0;entryX=0;entryY=0.5;entryDx=0;entryDy=0;" edge="1" parent="WIyWlLk6GJQsqaUBKTNV-1" source="7mk8K7BxGzbzZLSSsg7X-37" target="7mk8K7BxGzbzZLSSsg7X-42">
          <mxGeometry relative="1" as="geometry" />
        </mxCell>
        <mxCell id="7mk8K7BxGzbzZLSSsg7X-36" value="yes" style="edgeLabel;html=1;align=center;verticalAlign=middle;resizable=0;points=[];" vertex="1" connectable="0" parent="7mk8K7BxGzbzZLSSsg7X-35">
          <mxGeometry x="-0.2286" y="3" relative="1" as="geometry">
            <mxPoint as="offset" />
          </mxGeometry>
        </mxCell>
        <mxCell id="7mk8K7BxGzbzZLSSsg7X-37" value="调场规则验证" style="rhombus;whiteSpace=wrap;html=1;" vertex="1" parent="WIyWlLk6GJQsqaUBKTNV-1">
          <mxGeometry x="215" y="600" width="80" height="80" as="geometry" />
        </mxCell>
        <mxCell id="7mk8K7BxGzbzZLSSsg7X-38" style="edgeStyle=orthogonalEdgeStyle;rounded=0;orthogonalLoop=1;jettySize=auto;html=1;exitX=0.5;exitY=1;exitDx=0;exitDy=0;" edge="1" parent="WIyWlLk6GJQsqaUBKTNV-1" source="7mk8K7BxGzbzZLSSsg7X-42" target="7mk8K7BxGzbzZLSSsg7X-43">
          <mxGeometry relative="1" as="geometry" />
        </mxCell>
        <mxCell id="7mk8K7BxGzbzZLSSsg7X-39" value="no" style="edgeLabel;html=1;align=center;verticalAlign=middle;resizable=0;points=[];" vertex="1" connectable="0" parent="7mk8K7BxGzbzZLSSsg7X-38">
          <mxGeometry x="-0.6533" y="2" relative="1" as="geometry">
            <mxPoint as="offset" />
          </mxGeometry>
        </mxCell>
        <mxCell id="7mk8K7BxGzbzZLSSsg7X-41" style="edgeStyle=orthogonalEdgeStyle;rounded=0;orthogonalLoop=1;jettySize=auto;html=1;exitX=1;exitY=0.5;exitDx=0;exitDy=0;" edge="1" parent="WIyWlLk6GJQsqaUBKTNV-1" source="7mk8K7BxGzbzZLSSsg7X-42" target="7mk8K7BxGzbzZLSSsg7X-47">
          <mxGeometry relative="1" as="geometry">
            <mxPoint x="595" y="640" as="targetPoint" />
          </mxGeometry>
        </mxCell>
        <mxCell id="7mk8K7BxGzbzZLSSsg7X-57" value="yes" style="edgeLabel;html=1;align=center;verticalAlign=middle;resizable=0;points=[];" vertex="1" connectable="0" parent="7mk8K7BxGzbzZLSSsg7X-41">
          <mxGeometry x="-0.2333" relative="1" as="geometry">
            <mxPoint as="offset" />
          </mxGeometry>
        </mxCell>
        <mxCell id="7mk8K7BxGzbzZLSSsg7X-42" value="推荐调入班级，或验证班级名额" style="rhombus;whiteSpace=wrap;html=1;" vertex="1" parent="WIyWlLk6GJQsqaUBKTNV-1">
          <mxGeometry x="365" y="600" width="80" height="80" as="geometry" />
        </mxCell>
        <mxCell id="7mk8K7BxGzbzZLSSsg7X-43" value="失败退出" style="rounded=1;whiteSpace=wrap;html=1;fontSize=12;glass=0;strokeWidth=1;shadow=0;" vertex="1" parent="WIyWlLk6GJQsqaUBKTNV-1">
          <mxGeometry x="275" y="760" width="120" height="40" as="geometry" />
        </mxCell>
        <mxCell id="7mk8K7BxGzbzZLSSsg7X-63" value="" style="edgeStyle=orthogonalEdgeStyle;rounded=0;orthogonalLoop=1;jettySize=auto;html=1;" edge="1" parent="WIyWlLk6GJQsqaUBKTNV-1" source="7mk8K7BxGzbzZLSSsg7X-47" target="7mk8K7BxGzbzZLSSsg7X-59">
          <mxGeometry relative="1" as="geometry" />
        </mxCell>
        <mxCell id="7mk8K7BxGzbzZLSSsg7X-47" value="计算班级及小组" style="rounded=0;whiteSpace=wrap;html=1;" vertex="1" parent="WIyWlLk6GJQsqaUBKTNV-1">
          <mxGeometry x="500" y="620" width="120" height="40" as="geometry" />
        </mxCell>
        <mxCell id="7mk8K7BxGzbzZLSSsg7X-67" value="" style="edgeStyle=orthogonalEdgeStyle;rounded=0;orthogonalLoop=1;jettySize=auto;html=1;" edge="1" parent="WIyWlLk6GJQsqaUBKTNV-1" source="7mk8K7BxGzbzZLSSsg7X-49" target="7mk8K7BxGzbzZLSSsg7X-66">
          <mxGeometry relative="1" as="geometry" />
        </mxCell>
        <mxCell id="7mk8K7BxGzbzZLSSsg7X-49" value="修改用户课程数据，及更新缓存" style="rounded=0;whiteSpace=wrap;html=1;" vertex="1" parent="WIyWlLk6GJQsqaUBKTNV-1">
          <mxGeometry x="1010" y="620" width="120" height="40" as="geometry" />
        </mxCell>
        <mxCell id="7mk8K7BxGzbzZLSSsg7X-50" style="edgeStyle=orthogonalEdgeStyle;rounded=0;orthogonalLoop=1;jettySize=auto;html=1;" edge="1" parent="WIyWlLk6GJQsqaUBKTNV-1" source="7mk8K7BxGzbzZLSSsg7X-51" target="7mk8K7BxGzbzZLSSsg7X-53">
          <mxGeometry relative="1" as="geometry" />
        </mxCell>
        <mxCell id="7mk8K7BxGzbzZLSSsg7X-51" value="推送调场MQ" style="rounded=0;whiteSpace=wrap;html=1;" vertex="1" parent="WIyWlLk6GJQsqaUBKTNV-1">
          <mxGeometry x="1360" y="620" width="120" height="40" as="geometry" />
        </mxCell>
        <mxCell id="7mk8K7BxGzbzZLSSsg7X-52" style="edgeStyle=orthogonalEdgeStyle;rounded=0;orthogonalLoop=1;jettySize=auto;html=1;entryX=0;entryY=0.5;entryDx=0;entryDy=0;" edge="1" parent="WIyWlLk6GJQsqaUBKTNV-1" source="7mk8K7BxGzbzZLSSsg7X-53" target="7mk8K7BxGzbzZLSSsg7X-55">
          <mxGeometry relative="1" as="geometry">
            <mxPoint x="1710.0000000000002" y="640" as="targetPoint" />
          </mxGeometry>
        </mxCell>
        <mxCell id="7mk8K7BxGzbzZLSSsg7X-53" value="发送SMS消息" style="rounded=0;whiteSpace=wrap;html=1;" vertex="1" parent="WIyWlLk6GJQsqaUBKTNV-1">
          <mxGeometry x="1530" y="620" width="120" height="40" as="geometry" />
        </mxCell>
        <mxCell id="7mk8K7BxGzbzZLSSsg7X-54" value="班级小组名额，班级小组关系，" style="text;html=1;align=center;verticalAlign=middle;resizable=0;points=[];autosize=1;" vertex="1" parent="WIyWlLk6GJQsqaUBKTNV-1">
          <mxGeometry x="647" y="574" width="180" height="20" as="geometry" />
        </mxCell>
        <mxCell id="7mk8K7BxGzbzZLSSsg7X-55" value="返回数据，成功结束" style="rounded=1;whiteSpace=wrap;html=1;" vertex="1" parent="WIyWlLk6GJQsqaUBKTNV-1">
          <mxGeometry x="1720" y="615" width="120" height="50" as="geometry" />
        </mxCell>
        <mxCell id="7mk8K7BxGzbzZLSSsg7X-65" style="edgeStyle=orthogonalEdgeStyle;rounded=0;orthogonalLoop=1;jettySize=auto;html=1;exitX=1;exitY=0.5;exitDx=0;exitDy=0;entryX=0;entryY=0.5;entryDx=0;entryDy=0;" edge="1" parent="WIyWlLk6GJQsqaUBKTNV-1" source="7mk8K7BxGzbzZLSSsg7X-58" target="7mk8K7BxGzbzZLSSsg7X-49">
          <mxGeometry relative="1" as="geometry" />
        </mxCell>
        <mxCell id="7mk8K7BxGzbzZLSSsg7X-58" value="修改用户场次数据，及更新缓存" style="rounded=0;whiteSpace=wrap;html=1;" vertex="1" parent="WIyWlLk6GJQsqaUBKTNV-1">
          <mxGeometry x="840" y="620" width="120" height="40" as="geometry" />
        </mxCell>
        <mxCell id="7mk8K7BxGzbzZLSSsg7X-64" style="edgeStyle=orthogonalEdgeStyle;rounded=0;orthogonalLoop=1;jettySize=auto;html=1;" edge="1" parent="WIyWlLk6GJQsqaUBKTNV-1" source="7mk8K7BxGzbzZLSSsg7X-59" target="7mk8K7BxGzbzZLSSsg7X-58">
          <mxGeometry relative="1" as="geometry" />
        </mxCell>
        <mxCell id="7mk8K7BxGzbzZLSSsg7X-59" value="修改用户班级数据，及更新缓存" style="rounded=0;whiteSpace=wrap;html=1;" vertex="1" parent="WIyWlLk6GJQsqaUBKTNV-1">
          <mxGeometry x="670" y="620" width="120" height="40" as="geometry" />
        </mxCell>
        <mxCell id="7mk8K7BxGzbzZLSSsg7X-62" style="edgeStyle=orthogonalEdgeStyle;rounded=0;orthogonalLoop=1;jettySize=auto;html=1;" edge="1" parent="WIyWlLk6GJQsqaUBKTNV-1" source="7mk8K7BxGzbzZLSSsg7X-60" target="7mk8K7BxGzbzZLSSsg7X-23">
          <mxGeometry relative="1" as="geometry" />
        </mxCell>
        <mxCell id="7mk8K7BxGzbzZLSSsg7X-60" value="调场日志" style="rounded=0;whiteSpace=wrap;html=1;" vertex="1" parent="WIyWlLk6GJQsqaUBKTNV-1">
          <mxGeometry x="930" y="160" width="120" height="40" as="geometry" />
        </mxCell>
        <mxCell id="7mk8K7BxGzbzZLSSsg7X-68" value="" style="edgeStyle=orthogonalEdgeStyle;rounded=0;orthogonalLoop=1;jettySize=auto;html=1;" edge="1" parent="WIyWlLk6GJQsqaUBKTNV-1" source="7mk8K7BxGzbzZLSSsg7X-66" target="7mk8K7BxGzbzZLSSsg7X-51">
          <mxGeometry relative="1" as="geometry" />
        </mxCell>
        <mxCell id="7mk8K7BxGzbzZLSSsg7X-66" value="调课日志" style="rounded=0;whiteSpace=wrap;html=1;" vertex="1" parent="WIyWlLk6GJQsqaUBKTNV-1">
          <mxGeometry x="1180" y="620" width="120" height="40" as="geometry" />
        </mxCell>
        <mxCell id="7mk8K7BxGzbzZLSSsg7X-69" value="虚拟班，临调实体班处理" style="text;html=1;align=center;verticalAlign=middle;resizable=0;points=[];autosize=1;" vertex="1" parent="WIyWlLk6GJQsqaUBKTNV-1">
          <mxGeometry x="827" y="680" width="150" height="20" as="geometry" />
        </mxCell>
        <mxCell id="7mk8K7BxGzbzZLSSsg7X-70" value="教作业，临调讲词，特殊时间场次处理" style="text;html=1;align=center;verticalAlign=middle;resizable=0;points=[];autosize=1;" vertex="1" parent="WIyWlLk6GJQsqaUBKTNV-1">
          <mxGeometry x="792" y="710" width="220" height="20" as="geometry" />
        </mxCell>
      </root>
    </mxGraphModel>
  </diagram>
</mxfile>
